{"title":"The.Asphalt.Jungle.1950.HQ.720p.x264.AC3.[FrOnkY]","uid":11926022,"size":3962086928,"categoryP":"video","categoryS":"hd___movies","magnet":"?xt=urn:btih:da945801df432f266e8682f3ab005708a9cc8af9&amp;dn=The.Asphalt.Jungle.1950.HQ.720p.x264.AC3.%5BFrOnkY%5D&amp;tr=udp%3A%2F%2Ftracker.openbittorrent.com%3A80&amp;tr=udp%3A%2F%2Fopen.demonii.com%3A1337&amp;tr=udp%3A%2F%2Ftracker.coppersurfer.tk%3A6969&amp;tr=udp%3A%2F%2Fexodus.desync.com%3A6969","seeders":0,"leechers":3,"uploader":"HDmEntEs","files":1,"time":1431707784,"description":"The.Asphalt.Jungle.(La.Jungla.De.Asfalto).1950.HQ.720p.x264.AC3.[FrOnkY].mkv\n\n\nFormat                                   : Matroska\nFormat version                           : Version 4 / Version 2\nFile size                                : 3.69 GiB\nDuration                                 : 1h 52mn\nOverall bit rate                         : 4 708 Kbps\nWriting application                      : mkvmerge v6.9.1 ('Blue Panther') 32bit\nWriting library                          : libebml v1.3.0 + libmatroska v1.4.1\nAttachements                             : AsphaltJungle1.jpg / AsphaltJungle2.jpg / AsphaltJungle3.jpg / AsphaltJungle4.jpg / JunglaDeAsfalto.jpg\n\nVideo\nID                                       : 1\nFormat                                   : AVC\nFormat/Info                              : Advanced Video Codec\nFormat profile                           : High L4.1\nFormat settings, CABAC                   : Yes\nFormat settings, ReFrames                : 11 frames\nCodec ID                                 : V_MPEG4/ISO/AVC\nDuration                                 : 1h 52mn\nBit rate                                 : 4 321 Kbps\nWidth                                    : 972 pixels\nHeight                                   : 720 pixels\nDisplay aspect ratio                     : 4:3\nFrame rate mode                          : Constant\nFrame rate                               : 23.976 fps\nColor space                              : YUV\nChroma subsampling                       : 4:2:0\nBit depth                                : 8 bits\nScan type                                : Progressive\nBits/(Pixel*Frame)                       : 0.258\nStream size                              : 3.32 GiB (90%)\nWriting library                          : x264 core 142 r2491 24e4fed\nLanguage                                 : English\nDefault                                  : Yes\nForced                                   : No\n\nAudio #1\nID                                       : 2\nFormat                                   : AC-3\nFormat/Info                              : Audio Coding 3\nMode extension                           : CM (complete main)\nFormat settings, Endianness              : Big\nCodec ID                                 : A_AC3\nDuration                                 : 1h 52mn\nBit rate mode                            : Constant\nBit rate                                 : 192 Kbps\nChannel(s)                               : 2 channels\nChannel positions                        : Front: L R\nSampling rate                            : 48.0 KHz\nBit depth                                : 16 bits\nStream size                              : 154 MiB (4%)\nLanguage                                 : Spanish\nDefault                                  : Yes\nForced                                   : No\n\nAudio #2\nID                                       : 3\nFormat                                   : AC-3\nFormat/Info                              : Audio Coding 3\nMode extension                           : CM (complete main)\nFormat settings, Endianness              : Big\nCodec ID                                 : A_AC3\nDuration                                 : 1h 52mn\nBit rate mode                            : Constant\nBit rate                                 : 192 Kbps\nChannel(s)                               : 1 channel\nChannel positions                        : Front: C\nSampling rate                            : 48.0 KHz\nBit depth                                : 16 bits\nStream size                              : 154 MiB (4%)\nLanguage                                 : English\nDefault                                  : No\nForced                                   : No\n\nText #1\nID                                       : 4\nFormat                                   : UTF-8\nCodec ID                                 : S_TEXT/UTF8\nCodec ID/Info                            : UTF-8 Plain Text\nTitle                                    : for\nLanguage                                 : Spanish\nDefault                                  : Yes\nForced                                   : No\n\nText #2\nID                                       : 5\nFormat                                   : UTF-8\nCodec ID                                 : S_TEXT/UTF8\nCodec ID/Info                            : UTF-8 Plain Text\nLanguage                                 : Spanish\nDefault                                  : No\nForced                                   : No\n\nText #3\nID                                       : 6\nFormat                                   : UTF-8\nCodec ID                                 : S_TEXT/UTF8\nCodec ID/Info                            : UTF-8 Plain Text\nLanguage                                 : Spanish\nDefault                                  : No\nForced                                   : No\n\nText #4\nID                                       : 7\nFormat                                   : UTF-8\nCodec ID                                 : S_TEXT/UTF8\nCodec ID/Info                            : UTF-8 Plain Text\nLanguage                                 : English\nDefault                                  : No\nForced                                   : No\n\nText #5\nID                                       : 8\nFormat                                   : UTF-8\nCodec ID                                 : S_TEXT/UTF8\nCodec ID/Info                            : UTF-8 Plain Text\nLanguage                                 : French\nDefault                                  : No\nForced                                   : No\n\nMenu\n00:00:00.000                             : en:Chapter 01\n00:01:10.111                             : en:Chapter 02\n00:05:13.222                             : en:Chapter 03\n00:07:26.111                             : en:Chapter 04\n00:12:46.222                             : en:Chapter 05\n00:16:30.111                             : en:Chapter 06\n00:18:47.000                             : en:Chapter 07\n00:22:56.111                             : en:Chapter 08\n00:25:06.333                             : en:Chapter 09\n00:28:30.555                             : en:Chapter 10\n00:32:42.111                             : en:Chapter 11\n00:37:08.222                             : en:Chapter 12\n00:40:27.888                             : en:Chapter 13\n00:44:35.000                             : en:Chapter 14\n00:49:12.111                             : en:Chapter 15\n00:55:40.222                             : en:Chapter 16\n00:57:56.555                             : en:Chapter 17\n01:01:54.000                             : en:Chapter 18\n01:04:48.444                             : en:Chapter 19\n01:07:23.222                             : en:Chapter 20\n01:10:30.333                             : en:Chapter 21\n01:15:26.000                             : en:Chapter 22\n01:19:05.222                             : en:Chapter 23\n01:22:53.000                             : en:Chapter 24\n01:25:53.777                             : en:Chapter 25\n01:32:21.111                             : en:Chapter 26\n01:37:17.999                             : en:Chapter 27\n01:38:46.111                             : en:Chapter 28\n01:42:57.666                             : en:Chapter 29\n01:46:50.000                             : en:Chapter 30\n01:48:53.111                             : en:Chapter 31\n\n\nSD - HQ\n &lt;a href=&quot;\nhttp://i.imgur.com/7XcCz5O.png&quot; rel=&quot;nofollow&quot; target=&quot;_NEW&quot;&gt;\nhttp://i.imgur.com/7XcCz5O.png&lt;/a&gt; &lt;a href=&quot;\nhttp://i.imgur.com/BDLrmLX.png&quot; rel=&quot;nofollow&quot; target=&quot;_NEW&quot;&gt;\nhttp://i.imgur.com/BDLrmLX.png&lt;/a&gt;","torrent":{"xt":"urn:btih:da945801df432f266e8682f3ab005708a9cc8af9","amp;dn":"The.Asphalt.Jungle.1950.HQ.720p.x264.AC3.%5BFrOnkY%5D","amp;tr":["udp%3A%2F%2Ftracker.openbittorrent.com%3A80","udp%3A%2F%2Fopen.demonii.com%3A1337","udp%3A%2F%2Ftracker.coppersurfer.tk%3A6969","udp%3A%2F%2Fexodus.desync.com%3A6969"],"infoHash":"da945801df432f266e8682f3ab005708a9cc8af9","infoHashBuffer":{"type":"Buffer","data":[218,148,88,1,223,67,47,38,110,134,130,243,171,0,87,8,169,204,138,249]},"announce":[],"urlList":[]}}